<svg id="Layer_1" data-name="Layer 1" xmlns="http://www.w3.org/2000/svg" viewBox="0 0 200 200"><defs><style>.cls-1{fill:#ababab;}</style></defs><title>Untitled-1</title><g id="Forma_1" data-name="Forma 1"><path class="cls-1" d="M130.52,88.13a3.93,3.93,0,0,0-4.28.85l-7.48,7.47V91.89A5.88,5.88,0,0,0,112.89,86H80.66a5.88,5.88,0,0,0-5.88,5.87v21.62a5.88,5.88,0,0,0,5.88,5.87h32.23a5.88,5.88,0,0,0,5.88-5.87V109l7.48,7.47a3.93,3.93,0,0,0,6.7-2.77V91.75A3.92,3.92,0,0,0,130.52,88.13Zm-28.11,16.1-8,6.15a1.92,1.92,0,0,1-3.09-1.52V96.55A1.92,1.92,0,0,1,94.4,95l8,6.15A1.92,1.92,0,0,1,102.42,104.22Z"/></g></svg>